HIERARCHY
ROOT Hips
{
	OFFSET 0.00000 0.00000 0.00000
	CHANNELS 6 Xposition Yposition Zposition Yrotation Zrotation Xrotation 
	JOINT Lumbar
	{
		OFFSET 0 0 0
		CHANNELS 3 Zrotation Xrotation Yrotation
		JOINT Neck
		{
			OFFSET 0.00 0.2701 0.00
			CHANNELS 3 Zrotation Xrotation Yrotation
			End Site
			{
				OFFSET 0.00 0.1379 0.00
			}
		}
		JOINT RightShoulder
		{
			OFFSET 0.0119 0.2289 0.1181
			CHANNELS 3 Zrotation Xrotation Yrotation
			JOINT RightElbow
			{
				OFFSET 0.00 -0.1475 0.00
				CHANNELS 2 Zrotation Yrotation
				JOINT RightWrist
				{
					OFFSET 0.00 -0.1605 0.00
					CHANNELS 2 Zrotation Xrotation
					End Site
					{
						OFFSET 0.0040 -0.1068 0.0006
					}
				}
			}
		}
		JOINT LeftShoulder
		{
			OFFSET 0.0119 0.2289 -0.1181
			CHANNELS 3 Zrotation Xrotation Yrotation
			JOINT LeftElbow
			{
				OFFSET 0.00 -0.1475 0.00
				CHANNELS 2 Zrotation Yrotation
				JOINT LeftWrist
				{
					OFFSET 0.00 -0.1605 0.00
					CHANNELS 2 Zrotation Xrotation
					End Site
					{
						OFFSET 0.0040 -0.1068 -0.0006
					}
				}
			}
		}
	}
	JOINT RightHip
	{
		OFFSET 0.0316 -0.0424 0.0458
		CHANNELS 3 Zrotation Xrotation Yrotation
		JOINT RightKnee
		{
			OFFSET 0.00 -0.2438 0.00
			CHANNELS 1 Zrotation
			JOINT RightAnkle
			{
				OFFSET 0.00 -0.2449 0.00
				CHANNELS 3 Zrotation Xrotation Yrotation
				End Site
				{
					OFFSET 0.1237 -0.0542 0.0051
				}
			}
		}
	}
	JOINT LeftHip
	{
		OFFSET 0.0316 -0.0424 -0.0458
		CHANNELS 3 Zrotation Xrotation Yrotation
		JOINT LeftKnee
		{
			OFFSET 0.00 -0.2438 0.00
			CHANNELS 1 Zrotation
			JOINT LeftAnkle
			{
				OFFSET 0.00 -0.2449 0.00
				CHANNELS 3 Zrotation Xrotation Yrotation
				End Site
				{
					OFFSET 0.1237 -0.0542 -0.0051
				}
			}
		}
	}
}
MOTION
Frames: 25
Frame Time: 0.02
-0.00088 -0.0003 0.00054 178.83144 -43.90566 1.53554 54.63534 -0.96774 -2.08019 -9.92755 -1.51383 -1.55766 166.38351 -71.99651 -40.63232 13.57346 70.62615 -1.45506 -5.61891 9.90702 106.1579 87.14134 5.7871 -44.3559 -22.88462 -4.72533 44.5232 -2.46409 -10.09193 -18.91264 -6.95323 -3.32625 -3.86215 50.27505 4.93891 10.06296 -24.20799 -7.89275 3.34992 3.88712
-0.00129 -0.00034 -0.00049 178.89575 -43.85074 1.56408 54.63864 -0.98951 -2.08157 -9.90864 -1.50068 -1.55808 166.38381 -72.01476 -40.67733 13.56608 70.67668 -1.44416 -5.60492 9.88027 106.09233 87.14098 5.78711 -44.39173 -22.86244 -4.72649 44.42607 -2.34884 -9.94337 -18.92527 -6.95887 -3.34369 -3.87094 50.19922 5.02058 10.03779 -24.22983 -7.89836 3.33849 3.88576
-0.0017 -0.00038 -0.00152 178.95997 -43.79598 1.59256 54.64188 -1.01123 -2.08293 -9.88971 -1.48755 -1.5585 166.3841 -72.03292 -40.7223 13.55878 70.72704 -1.43325 -5.59103 9.85343 106.02691 87.14059 5.78713 -44.42729 -22.84044 -4.7276 44.32929 -2.23387 -9.79572 -18.93795 -6.96446 -3.36104 -3.87968 50.12373 5.10216 10.01269 -24.25171 -7.90399 3.32709 3.8844
-0.0021 -0.00042 -0.00254 179.0241 -43.74122 1.62102 54.64516 -1.03293 -2.08431 -9.87085 -1.47443 -1.55892 166.38439 -72.05111 -40.76719 13.55143 70.77741 -1.42238 -5.57709 9.82675 105.96153 87.14031 5.78714 -44.46295 -22.81837 -4.72875 44.23246 -2.11896 -9.64769 -18.95056 -6.97008 -3.37841 -3.88845 50.04814 5.1836 9.98761 -24.27349 -7.9096 3.31569 3.88304
-0.00251 -0.00046 -0.00357 179.08828 -43.68631 1.64951 54.64852 -1.05468 -2.0857 -9.85204 -1.46131 -1.55935 166.38468 -72.0694 -40.81206 13.54401 70.82796 -1.41153 -5.56301 9.80018 105.89603 87.13984 5.78716 -44.49903 -22.796 -4.72996 44.13528 -2.00381 -9.49858 -18.9631 -6.97575 -3.39589 -3.89726 49.97217 5.26509 9.96244 -24.29521 -7.91517 3.30427 3.88168
-0.00291 -0.0005 -0.0046 179.15255 -43.63186 1.67798 54.6515 -1.07634 -2.08703 -9.83288 -1.44815 -1.55977 166.38497 -72.08729 -40.85725 13.53695 70.87791 -1.4005 -5.54953 9.77275 105.8308 87.1395 5.78717 -44.53352 -22.77473 -4.73088 44.03936 -1.88921 -9.35402 -18.97606 -6.98117 -3.41298 -3.90587 49.89773 5.34686 9.93747 -24.31742 -7.92092 3.29291 3.88033
-0.00333 -0.00054 -0.00562 179.21658 -43.57654 1.70646 54.65524 -1.09814 -2.0885 -9.81444 -1.43508 -1.56019 166.38526 -72.10594 -40.90179 13.52916 70.92899 -1.38983 -5.53488 9.74718 105.76508 87.13949 5.78718 -44.57097 -22.75149 -4.73236 43.94097 -1.77365 -9.20045 -18.98816 -6.98709 -3.43082 -3.91487 49.82025 5.42796 9.91221 -24.3386 -7.92631 3.28144 3.87896
-0.00373 -0.00058 -0.00665 179.28082 -43.52204 1.73493 54.65827 -1.11983 -2.08978 -9.79535 -1.42194 -1.56061 166.38555 -72.12394 -40.94681 13.52204 70.97907 -1.37887 -5.52126 9.71973 105.69985 87.13808 5.7872 -44.60603 -22.72966 -4.73336 43.84493 -1.65894 -9.05521 -19.00106 -6.99255 -3.44797 -3.92351 49.74564 5.50969 9.88707 -24.36072 -7.93205 3.27008 3.87761
-0.00411 -0.00062 -0.00768 179.34542 -43.46841 1.76342 54.66049 -1.14133 -2.09106 -9.77538 -1.40866 -1.56103 166.38584 -72.14093 -40.99293 13.51578 71.02778 -1.36739 -5.50911 9.69057 105.63501 87.13931 5.78721 -44.63684 -22.71117 -4.73364 43.75142 -1.54534 -8.92009 -19.01492 -6.99744 -3.4643 -3.93173 49.67426 5.59219 9.86263 -24.38406 -7.93815 3.2588 3.87626
-0.00459 -0.00066 -0.00869 179.40825 -43.40942 1.79187 54.66753 -1.16375 -2.09304 -9.7602 -1.39601 -1.56146 166.38615 -72.1631 -41.03429 13.50469 71.08396 -1.3584 -5.48912 9.67305 105.56729 87.13845 5.78723 -44.68811 -22.67833 -4.73767 43.64236 -1.42553 -8.72656 -19.0232 -7.00561 -3.48539 -3.94242 49.58346 5.67027 9.83582 -24.40063 -7.94197 3.2469 3.87485
-0.00487 -0.00069 -0.00976 179.47462 -43.36198 1.82037 54.6643 -1.18434 -2.09309 -9.73509 -1.38216 -1.56187 166.3864 -72.17476 -41.08469 13.50373 71.12461 -1.34446 -5.48527 9.62982 105.50608 87.13362 5.78724 -44.69878 -22.67264 -4.73405 43.56673 -1.31873 -8.65633 -19.04329 -7.00685 -3.49642 -3.94788 49.53415 5.75765 9.81298 -24.4313 -7.95073 3.23642 3.87362
-0.00463 -0.00072 -0.011 179.5524 -43.34451 1.84912 54.63313 -1.19893 -2.09168 -9.68112 -1.36389 -1.56223 166.38644 -72.15391 -41.16934 13.53119 71.12033 -1.31432 -5.5295 9.52596 105.46023 87.14936 5.78718 -44.58947 -22.758 -4.70533 43.57884 -1.24886 -8.92733 -19.09603 -6.9888 -3.47989 -3.93898 49.59575 5.87097 9.80937 -24.50268 -7.97204 3.22904 3.87252
-0.00419 -0.00073 -0.01231 179.63347 -43.33897 1.87789 54.59149 -1.21187 -2.08771 -9.6175 -1.34468 -1.5626 166.3864 -72.12324 -41.26191 13.56865 71.10094 -1.27957 -5.58929 9.39528 105.42209 87.12954 5.7871 -44.45051 -22.86067 -4.66862 43.62548 -1.19184 -9.32148 -19.16081 -6.96385 -3.45328 -3.92484 49.69967 5.99351 9.8081 -24.58788 -7.99852 3.22327 3.87169
-0.00384 -0.00075 -0.01359 179.71186 -43.32911 1.90655 54.55463 -1.2262 -2.08236 -9.55933 -1.32651 -1.56296 166.38641 -72.09943 -41.34398 13.60121 71.08987 -1.24886 -5.63935 9.26934 105.38111 87.13832 5.78703 -44.31859 -22.95337 -4.63958 43.65863 -1.1281 -9.65756 -19.21958 -6.94217 -3.43124 -3.91309 49.78598 6.11159 9.80047 -24.6654 -8.02323 3.2173 3.87099
-0.00352 -0.00077 -0.01485 179.79506 -43.3146 1.93561 54.51812 -1.23781 -2.08749 -9.49659 -1.30544 -1.56325 166.38639 -72.06533 -41.45285 13.63556 71.07236 -1.21053 -5.70033 9.17136 105.33439 87.20047 5.78695 -44.17463 -23.08329 -4.59782 43.68161 -1.06801 -10.0033 -19.27964 -6.91979 -3.40915 -3.90125 49.865 6.23101 9.81563 -24.74873 -8.04535 3.20903 3.86918
-0.00307 -0.00079 -0.01619 179.86926 -43.3126 1.96386 54.4778 -1.25469 -2.07048 -9.44115 -1.29059 -1.5638 166.3864 -72.05052 -41.51071 13.66821 71.065 -1.18623 -5.74268 9.01311 105.30516 87.0102 5.7869 -44.09782 -23.10432 -4.5752 43.73516 -1.00347 -10.35743 -19.34116 -6.89737 -3.38489 -3.88841 49.96988 6.34963 9.78333 -24.82339 -8.07428 3.206 3.86978
-0.00233 -0.00083 -0.01775 179.91593 -43.34222 1.98993 54.43429 -1.28661 -1.99026 -9.40773 -1.28975 -1.56414 166.38651 -72.09038 -41.40144 13.69624 71.08793 -1.20801 -5.72596 8.65911 105.28823 87.31408 5.78695 -43.77759 -23.1361 -4.6558 43.85474 -0.9228 -10.71064 -19.39338 -6.87525 -3.35622 -3.87361 50.13058 6.46529 9.6239 -24.87006 -8.11906 3.21657 3.87673
-0.00146 -0.00086 -0.01941 179.95384 -43.38391 2.01523 54.38618 -1.32388 -1.88833 -9.38217 -1.29588 -1.56492 166.3865 -72.15045 -41.24573 13.7215 71.12265 -1.24288 -5.69051 8.25291 105.29335 87.17676 5.78705 -43.59611 -23.00733 -4.74799 44.00603 -0.83759 -11.06727 -19.44917 -6.85353 -3.32584 -3.85804 50.31711 6.57947 9.41574 -24.90813 -8.17081 3.23244 3.88614
-0.00063 -0.0009 -0.02102 179.99697 -43.42019 2.04077 54.33734 -1.35861 -1.79812 -9.35323 -1.30098 -1.56607 166.38676 -72.20164 -41.12643 13.7467 71.15191 -1.26768 -5.66634 7.89313 105.31282 86.42485 5.78708 -43.65147 -22.73417 -4.80177 44.14894 -0.75459 -11.41783 -19.50937 -6.83251 -3.29689 -3.84317 50.49486 6.69347 9.22695 -24.94992 -8.22049 3.24622 3.89456
0.00011 -0.00094 -0.02264 180.03482 -43.45696 2.06653 54.30101 -1.39369 -1.70004 -9.32282 -1.29686 -1.56474 166.38676 -72.25019 -40.94018 13.77883 71.17782 -1.30974 -5.63168 7.43329 105.23639 88.97985 5.78716 -42.48613 -23.34406 -4.99076 44.26641 -0.67038 -11.79015 -19.5421 -6.80764 -3.26502 -3.82675 50.66041 6.81176 9.05011 -24.99096 -8.26578 3.25877 3.90242
0.00108 -0.00097 -0.02426 180.08172 -43.49492 2.09194 54.23645 -1.42939 -1.61318 -9.29791 -1.31385 -1.56878 166.38646 -72.31043 -40.88552 13.79447 71.21775 -1.319 -5.61341 7.17393 105.35638 84.70961 5.7873 -43.83842 -22.12046 -4.90655 44.44543 -0.58876 -12.11837 -19.63577 -6.79081 -3.23873 -3.81332 50.85845 6.92017 8.83657 -25.03391 -8.32173 3.27506 3.91203
0.00259 -0.00091 -0.02585 180.15421 -43.53705 2.1139 54.10517 -1.46502 -1.56282 -9.28222 -1.38513 -1.58663 166.38777 -72.38779 -41.18028 13.77586 71.25851 -1.23425 -5.65164 7.48585 106.07899 60.29078 5.78701 -52.6125 -15.49454 -4.01526 44.77381 -0.50391 -12.30529 -19.87184 -6.79774 -3.23047 -3.80941 51.12738 7.00585 8.53563 -25.0637 -8.40581 3.30082 3.92587
0.00432 -0.00083 -0.02742 180.23629 -43.57895 2.13595 53.9436 -1.50115 -1.52439 -9.27248 -1.47771 -1.60998 166.38517 -72.47863 -41.61555 13.7386 71.31926 -1.1159 -5.70558 8.0281 106.98129 29.29952 5.78731 -63.82331 -7.10028 -2.85663 45.1653 -0.4238 -12.44996 -20.17427 -6.81245 -3.22761 -3.8084 51.43057 7.08098 8.19935 -25.10054 -8.50013 3.33006 3.94137
0.00598 -0.00077 -0.02899 180.3151 -43.61865 2.15984 53.78958 -1.53744 -1.48047 -9.26287 -1.56223 -1.63144 166.38674 -72.56945 -42.00077 13.70301 71.39427 -1.01338 -5.748 8.42682 107.7645 2.21937 5.78715 -73.58615 0.23695 -1.8548 45.53607 -0.34913 -12.62639 -20.46202 -6.82259 -3.2208 -3.80535 51.72566 7.15789 7.87751 -25.14624 -8.58964 3.35741 3.95616
0.00751 -0.00067 -0.03063 180.38943 -43.66941 2.17611 53.6625 -1.57247 -1.43637 -9.24206 -1.64073 -1.65052 166.39111 -72.63326 -42.31873 13.69653 71.37239 -0.90978 -5.80869 8.87461 108.72675 -28.85103 5.78601 -84.78462 8.65232 -0.70975 45.87417 -0.24268 -12.75253 -20.68242 -6.83724 -3.21994 -3.80519 51.98881 7.24669 7.55953 -25.13642 -8.68061 3.3863 3.97092
